<?xml version="1.0" encoding="UTF-8" standalone="no"?>
<svg
   width="180"
   height="38"
   viewBox="0 0 180 38"
   fill="none"
   version="1.1"
   id="svg4"
   sodipodi:docname="logo.svg"
   inkscape:version="1.4.2 (f4327f4, 2025-05-13)"
   xmlns:inkscape="http://www.inkscape.org/namespaces/inkscape"
   xmlns:sodipodi="http://sodipodi.sourceforge.net/DTD/sodipodi-0.dtd"
   xmlns:xlink="http://www.w3.org/1999/xlink"
   xmlns="http://www.w3.org/2000/svg"
   xmlns:svg="http://www.w3.org/2000/svg">
  <defs
     id="defs4">
    <rect
       x="37.349608"
       y="8.3173496"
       width="133.70532"
       height="23.382738"
       id="rect12" />
  </defs>
  <sodipodi:namedview
     id="namedview4"
     pagecolor="#ffffff"
     bordercolor="#000000"
     borderopacity="0.25"
     inkscape:showpageshadow="2"
     inkscape:pageopacity="0.0"
     inkscape:pagecheckerboard="0"
     inkscape:deskcolor="#d1d1d1"
     showguides="false"
     inkscape:zoom="1.5930556"
     inkscape:cx="133.07759"
     inkscape:cy="32.327811"
     inkscape:window-width="1920"
     inkscape:window-height="991"
     inkscape:window-x="-9"
     inkscape:window-y="-9"
     inkscape:window-maximized="1"
     inkscape:current-layer="svg4"
     showgrid="false" />
  <path
     d="m 816.92863,163.52598 v -41.94155 h -6.0674 v 41.94155 z m -26.37859,0 v -16.52605 c 0,-1.71027 0.40151,-3.10236 1.20455,-4.17625 0.80303,-1.0739 1.84401,-1.61084 3.12293,-1.61084 0.83278,0 1.57633,0.23864 2.23065,0.71592 0.65433,0.4773 1.17481,1.15344 1.56146,2.02847 0.35692,0.87503 0.53537,1.88926 0.53537,3.0427 l 2.27526,-1.55117 c 0,-2.26712 -0.3569,-4.23592 -1.07071,-5.90643 -0.74355,-1.71027 -1.75479,-3.0427 -3.0337,-3.99727 -1.30865,-0.95457 -2.78088,-1.43185 -4.4167,-1.43185 -1.57635,0 -2.98909,0.53693 -4.23826,1.61083 -1.24917,1.03413 -2.23067,2.40633 -2.94447,4.1166 -0.71381,1.6705 -1.07071,3.4802 -1.07071,5.42914 v 18.2562 z m 14.49928,0 V 134.70981 H 799.205 v 28.81617 z m -32.45715,0.65627 c 1.21944,0 2.42399,-0.21876 3.61367,-0.65627 1.15995,-0.43752 2.23066,-1.03412 3.21216,-1.78982 0.98148,-0.79548 1.82913,-1.75005 2.54295,-2.86373 l -3.47983,-4.71319 c -0.74355,1.11366 -1.60608,1.94891 -2.58757,2.50574 -0.98149,0.55684 -2.06708,0.83526 -3.25676,0.83526 -0.95175,0 -1.66556,-0.17898 -2.14143,-0.53695 -0.50562,-0.35797 -0.75843,-0.89491 -0.75843,-1.61084 0,-0.79547 0.26768,-1.41197 0.80303,-1.84949 0.50562,-0.4375 1.17482,-0.79547 2.0076,-1.07389 0.83278,-0.31819 1.71018,-0.65628 2.63218,-1.01424 0.89226,-0.39774 1.75478,-0.8949 2.58756,-1.49151 0.83279,-0.63638 1.51685,-1.49152 2.05222,-2.56542 0.50561,-1.11367 0.75842,-2.54553 0.75842,-4.29557 0,-1.8296 -0.32717,-3.42056 -0.98149,-4.77288 -0.68407,-1.3523 -1.6507,-2.40631 -2.89986,-3.16201 -1.24917,-0.7557 -2.7214,-1.13356 -4.41671,-1.13356 -1.78452,0 -3.3906,0.41762 -4.81822,1.25287 -1.45736,0.83525 -2.66193,2.08813 -3.61368,3.75864 l 3.52445,4.7132 c 0.65433,-1.07389 1.39788,-1.84949 2.23066,-2.32677 0.80304,-0.47729 1.68043,-0.71594 2.63218,-0.71594 0.86252,0 1.53172,0.179 2.00759,0.53696 0.44613,0.35796 0.6692,0.85514 0.6692,1.49151 0,0.71594 -0.2528,1.27277 -0.75842,1.67051 -0.53537,0.39774 -1.21943,0.7557 -2.05221,1.0739 -0.83279,0.27841 -1.6953,0.61649 -2.58757,1.01423 -0.922,0.35796 -1.78453,0.87501 -2.58756,1.55118 -0.83279,0.67616 -1.50199,1.57106 -2.0076,2.68474 -0.53535,1.11367 -0.80304,2.54552 -0.80304,4.29556 0,2.82395 0.75844,5.07118 2.27528,6.74169 1.51685,1.63073 3.58392,2.44609 6.20123,2.44609 z m -12.41749,-0.65627 v -28.81617 h -5.88895 v 28.81617 z m -2.94447,-33.46972 c 0.95175,0 1.73992,-0.41763 2.3645,-1.25288 0.62458,-0.87501 0.93688,-1.94891 0.93688,-3.22168 0,-1.23299 -0.3123,-2.28699 -0.93688,-3.16202 -0.62458,-0.87502 -1.41275,-1.31254 -2.3645,-1.31254 -0.98149,0 -1.76966,0.43752 -2.3645,1.31254 -0.62458,0.87503 -0.93688,1.92903 -0.93688,3.16202 0,1.27277 0.3123,2.34667 0.93688,3.22168 0.59484,0.83525 1.38301,1.25288 2.3645,1.25288 z m -17.22277,34.06633 c 1.99271,0 3.77725,-0.65628 5.35358,-1.96881 1.57633,-1.31254 2.8255,-3.10237 3.74751,-5.36947 0.89227,-2.26711 1.3384,-4.81265 1.3384,-7.63659 0,-2.86371 -0.44613,-5.42913 -1.3384,-7.69624 -0.92201,-2.26711 -2.15631,-4.05693 -3.7029,-5.36948 -1.57633,-1.31253 -3.37573,-1.96879 -5.39819,-1.96879 -1.5466,0 -2.92961,0.41761 -4.14903,1.25287 -1.24918,0.83525 -2.24553,2.00858 -2.9891,3.51998 -0.77328,1.47164 -1.18968,3.14215 -1.24916,5.01151 v 10.26167 c 0.0595,1.86936 0.461,3.55976 1.20456,5.07116 0.74355,1.51141 1.73992,2.70462 2.98908,3.57965 1.24917,0.87502 2.64705,1.31254 4.19365,1.31254 z m -0.9815,-7.21896 c -1.10046,0 -2.0522,-0.31819 -2.85525,-0.95457 -0.83278,-0.67616 -1.47223,-1.59095 -1.91836,-2.7444 -0.47587,-1.19322 -0.71382,-2.56542 -0.71382,-4.11659 0,-1.51142 0.23795,-2.84384 0.71382,-3.99728 0.44613,-1.19322 1.08558,-2.10802 1.91836,-2.7444 0.80305,-0.67616 1.73992,-1.01423 2.81063,-1.01423 1.10047,0 2.06709,0.33807 2.89987,1.01423 0.80303,0.67616 1.4425,1.59095 1.91836,2.7444 0.44614,1.15344 0.6692,2.48586 0.6692,3.99728 0,1.55117 -0.22306,2.92337 -0.6692,4.11659 -0.47586,1.15345 -1.1302,2.06824 -1.96298,2.7444 -0.83278,0.63638 -1.76965,0.95457 -2.81063,0.95457 z m -10.97484,6.62235 h 5.79971 v -7.75591 l -0.93688,-7.03998 0.9815,-6.92064 v -21.41824 h -5.84433 z m -15.47573,0.59661 c 2.2604,0 4.26799,-0.63638 6.02278,-1.90914 1.75478,-1.31255 3.15252,-3.10237 4.19349,-5.36948 1.01123,-2.26712 1.51684,-4.85242 1.51684,-7.7559 0,-2.86372 -0.49073,-5.40925 -1.47223,-7.63659 -1.01123,-2.26711 -2.37922,-4.05693 -4.10426,-5.36948 -1.72504,-1.3523 -3.64341,-2.02846 -5.75511,-2.02846 -2.08194,0 -3.91109,0.63638 -5.48742,1.90915 -1.60607,1.23299 -2.85524,2.94326 -3.7475,5.13082 -0.92202,2.1478 -1.38302,4.59389 -1.38302,7.33829 0,0.51705 0.0297,1.054 0.0892,1.61084 0.0297,0.51705 0.10409,1.11366 0.22307,1.78982 l 18.11281,0.0596 v -5.84676 l -15.3914,-0.0597 2.36449,2.4461 c 0.0595,-1.71029 0.29741,-3.14214 0.71382,-4.29559 0.38664,-1.15344 0.96662,-2.02847 1.73992,-2.62507 0.74354,-0.63638 1.66555,-0.95458 2.76601,-0.95458 1.15994,0 2.17117,0.35797 3.03369,1.07391 0.86253,0.67614 1.53172,1.6506 2.00761,2.92337 0.44613,1.233 0.6692,2.70463 0.6692,4.41489 0,1.75007 -0.23795,3.28136 -0.71382,4.5939 -0.50562,1.27276 -1.21944,2.26711 -2.14143,2.98304 -0.92201,0.67615 -1.99274,1.01424 -3.21216,1.01424 -1.10046,0 -2.09683,-0.23865 -2.98908,-0.71594 -0.89227,-0.51706 -1.66555,-1.27276 -2.3199,-2.26712 l -3.4352,4.59389 c 1.04097,1.63073 2.31987,2.86372 3.83672,3.69897 1.48711,0.83525 3.10806,1.25288 4.86286,1.25288 z m -13.83158,-0.59661 v -28.81617 h -5.84433 v 28.81617 z m -5.84433,-15.92944 2.27526,-2.02847 c -0.26766,-3.53986 -1.04096,-6.32403 -2.31988,-8.3525 -1.27891,-2.06825 -3.12293,-3.10236 -5.53204,-3.10236 -1.04097,0 -1.97785,0.23864 -2.81063,0.71591 -0.83277,0.43752 -1.5912,1.17334 -2.27527,2.20745 l 3.65828,5.60813 c 0.32717,-0.47729 0.72868,-0.83525 1.20456,-1.0739 0.44612,-0.23864 0.96662,-0.35796 1.56146,-0.35796 1.24918,0 2.27528,0.53694 3.07831,1.61084 0.7733,1.03412 1.15995,2.62508 1.15995,4.77286 z m -10.82168,28.3389 c 1.21943,0 2.27528,-0.27843 3.16754,-0.83527 0.89225,-0.55683 1.68043,-1.35231 2.3645,-2.38643 l -2.05221,-2.7444 c -0.44614,0.71594 -0.95175,1.233 -1.51685,1.55119 -0.53535,0.31819 -1.14507,0.47728 -1.82914,0.47728 -1.01123,0 -1.87376,-0.39774 -2.58757,-1.19321 -0.71381,-0.79548 -1.07072,-2.04835 -1.07072,-3.75863 V 135.4854 h -3.12292 v 31.50091 c 0,1.94891 0.31229,3.57964 0.93687,4.89219 0.59485,1.3523 1.39788,2.36654 2.40912,3.0427 1.01123,0.67615 2.11169,1.01424 3.30138,1.01424 z m -5.0859,-46.53545 c 0.59483,0 1.10045,-0.27841 1.51685,-0.83525 0.41638,-0.59661 0.62458,-1.29264 0.62458,-2.08812 0,-0.83525 -0.2082,-1.5313 -0.62458,-2.08813 -0.4164,-0.55683 -0.92202,-0.83525 -1.51685,-0.83525 -0.65433,0 -1.17482,0.27842 -1.56147,0.83525 -0.41639,0.55683 -0.62458,1.25288 -0.62458,2.08813 0,0.79548 0.20819,1.49151 0.62458,2.08812 0.38665,0.55684 0.90714,0.83525 1.56147,0.83525 z m -17.39024,34.7226 c 2.02247,0 3.86648,-0.65628 5.53205,-1.96881 1.63581,-1.31254 2.94446,-3.08248 3.92596,-5.30981 0.95174,-2.22735 1.42762,-4.71321 1.42762,-7.45761 0,-2.70461 -0.47588,-5.15071 -1.42762,-7.33827 -0.9815,-2.18757 -2.29015,-3.91772 -3.92596,-5.19049 -1.66557,-1.31254 -3.50958,-1.96881 -5.53205,-1.96881 -2.0522,0 -3.89621,0.63638 -5.53203,1.90915 -1.63582,1.27276 -2.92961,3.02281 -3.88136,5.25015 -0.98148,2.18756 -1.47223,4.63366 -1.47223,7.33827 0,2.78418 0.49075,5.28993 1.47223,7.51727 0.95175,2.18757 2.24554,3.93761 3.88136,5.25015 1.63582,1.31253 3.47983,1.96881 5.53203,1.96881 z m 0,-4.05694 c -1.4871,0 -2.79576,-0.45739 -3.92596,-1.3722 -1.15995,-0.9148 -2.06708,-2.18756 -2.7214,-3.81829 -0.68408,-1.63073 -1.02611,-3.46033 -1.02611,-5.4888 0,-2.02846 0.34203,-3.81829 1.02611,-5.36946 0.65432,-1.59096 1.56145,-2.84384 2.7214,-3.75864 1.1302,-0.9148 2.43886,-1.3722 3.92596,-1.3722 1.45737,0 2.76602,0.4574 3.92597,1.3722 1.15995,0.9148 2.06708,2.16768 2.7214,3.75864 0.65433,1.55117 0.98149,3.341 0.98149,5.36946 0,2.06825 -0.32716,3.91774 -0.98149,5.54847 -0.65432,1.59095 -1.56145,2.84382 -2.7214,3.75862 -1.15995,0.91481 -2.4686,1.3722 -3.92597,1.3722 z m -26.69356,4.05694 c 1.60607,0 3.04857,-0.43752 4.32748,-1.31254 1.2789,-0.87503 2.33475,-2.06824 3.16753,-3.57965 0.80304,-1.55118 1.29379,-3.341 1.47224,-5.36948 v -8.77013 c -0.17845,-2.06824 -0.68407,-3.85806 -1.51685,-5.36948 -0.83278,-1.55118 -1.88862,-2.74439 -3.16753,-3.57964 -1.30865,-0.83525 -2.73628,-1.25288 -4.28287,-1.25288 -1.93324,0 -3.67316,0.65627 -5.21974,1.96881 -1.5466,1.27277 -2.76603,3.02281 -3.6583,5.25014 -0.922,2.18757 -1.383,4.67344 -1.383,7.45761 0,2.7444 0.44613,5.21037 1.3384,7.39794 0.89227,2.18756 2.12656,3.93761 3.7029,5.25016 1.54658,1.27276 3.2865,1.90914 5.21974,1.90914 z m 10.84101,-0.59661 v -42.23985 h -3.12293 v 21.06026 l 0.62458,6.74168 -0.62458,6.92064 v 7.51727 z m -10.30566,-3.40067 c -1.4871,0 -2.79576,-0.43751 -3.92596,-1.31254 -1.1302,-0.91479 -2.0076,-2.16767 -2.63218,-3.75863 -0.65432,-1.63073 -0.98148,-3.48021 -0.98148,-5.54845 0,-2.10802 0.32716,-3.9575 0.98148,-5.54846 0.62458,-1.59095 1.50198,-2.84383 2.63218,-3.75863 1.1302,-0.9148 2.42398,-1.3722 3.88135,-1.3722 1.45736,0 2.75115,0.4574 3.88134,1.3722 1.10047,0.9148 1.96299,2.16768 2.58758,3.75863 0.62459,1.59096 0.93687,3.44044 0.93687,5.54846 0,2.06824 -0.31228,3.91772 -0.93687,5.54845 -0.62459,1.59096 -1.48711,2.84384 -2.58758,3.75863 -1.10045,0.87503 -2.37936,1.31254 -3.83673,1.31254 z m -22.21589,3.99728 c 1.1302,0 2.2158,-0.19887 3.25677,-0.59661 1.04098,-0.43752 1.99273,-1.03412 2.85524,-1.78982 0.83279,-0.75571 1.56147,-1.65062 2.18605,-2.68475 l -2.00759,-2.74439 c -0.83279,1.35231 -1.76966,2.36654 -2.81064,3.04271 -1.07071,0.63638 -2.26039,0.95456 -3.56905,0.95456 -1.39788,0 -2.48347,-0.35796 -3.25676,-1.07389 -0.80305,-0.71593 -1.20456,-1.71028 -1.20456,-2.98305 0,-1.19321 0.28255,-2.12789 0.84765,-2.80404 0.5651,-0.67617 1.29378,-1.21312 2.18604,-1.61085 0.86254,-0.39773 1.78454,-0.77558 2.76602,-1.13355 0.9815,-0.39774 1.91838,-0.87503 2.81063,-1.43186 0.89227,-0.59661 1.62095,-1.41198 2.18605,-2.4461 0.53536,-1.03411 0.80305,-2.38643 0.80305,-4.05693 0,-1.59096 -0.28255,-2.96315 -0.84765,-4.1166 -0.59485,-1.19322 -1.42763,-2.10802 -2.49835,-2.7444 -1.10045,-0.67615 -2.39425,-1.01423 -3.88135,-1.01423 -1.57633,0 -3.00396,0.37785 -4.28286,1.13355 -1.27892,0.75571 -2.30502,1.86938 -3.07831,3.34101 l 2.00759,2.68474 c 0.62459,-1.0739 1.41275,-1.88926 2.3645,-2.44609 0.922,-0.59661 1.96298,-0.89492 3.12292,-0.89492 1.3384,0 2.3645,0.35796 3.07831,1.0739 0.68407,0.67614 1.0261,1.57106 1.0261,2.68473 0,1.0739 -0.28255,1.92904 -0.84765,2.56542 -0.5651,0.59661 -1.2789,1.09377 -2.14143,1.49152 -0.89227,0.35797 -1.82913,0.73582 -2.81063,1.13356 -0.98149,0.35796 -1.91837,0.85514 -2.81063,1.49151 -0.89227,0.59661 -1.60607,1.43186 -2.14143,2.50576 -0.5651,1.03412 -0.84765,2.44609 -0.84765,4.23592 0,2.50575 0.68406,4.51433 2.0522,6.02574 1.33839,1.47163 3.16754,2.20745 5.48742,2.20745 z"
     fill="#000000"
     id="path1"
     style="stroke-width:1.71971"
     sodipodi:nodetypes="ccccccsssscccccsccscccccccsccccsscscccccscssccccscscccccscscccccscssscscssscsccsccccssssccsccsccsccsccccccccsccsccsccsccccccccsccsccsccccssccccccccsccccsscsscccsssccscssscssscscssccsccsscscsssccsccsscscsssscccccsccsscsccccccccsccscsscssccsscccccscssccccsccsscccscscccccscs"
     inkscape:transform-center-x="-97.461928"
     inkscape:transform-center-y="-82.298381" />
  <path
     d="m 16.308045,8.3998166 c -0.03765,-0.05288 -0.07531,-0.10575 -0.12351,-0.17432 -0.0152,-0.02437 -0.0224,-0.02806 -0.03217,-0.02675 -0.01845,-0.02707 -0.03691,-0.05415 -0.07025,-0.09997 -0.16639,-0.19893 -0.3179,-0.37911 -0.46941,-0.55929 0,0 -0.01196,8e-5 -0.009,-0.01349 -0.1516,-0.21037 -0.30442,-0.40863 -0.46236,-0.60273 -0.03072,-0.03775 -0.08065,-0.08291 -0.12291,-0.08415 -0.16261,-0.00477 -0.3265,-0.02883 -0.48535,0.0472 -0.93309,0.4466 -1.79369,0.99986 -2.55742,1.70171 -1.24882,1.14758 -2.15034,2.5206804 -2.69127,4.1282804 -0.15954,0.4741 -0.30356,0.9532 -0.36657,1.4522 -0.00468,0.0175 -0.00937,0.035 -0.02008,0.0762 -0.00867,0.0565 -0.01131,0.0892 -0.01395,0.122 -0.0068,0.0295 -0.01359,0.059 -0.02719,0.1161 -0.01195,0.0984 -0.01709,0.1693 -0.02224,0.2401 -0.00383,0.0176 -0.00767,0.0351 -0.01743,0.0792 -0.02107,0.1762 -0.03621,0.3259 -0.05135,0.4756 -0.00282,0.4766 -0.00565,0.9533 -0.00741,1.4615 0.01024,0.088 0.01941,0.1446 0.02859,0.2011 0.00313,0.056 0.00626,0.112 0.01199,0.195 0.01139,0.0585 0.02018,0.09 0.02896,0.1215 0.00416,0.0562 0.00832,0.1124 0.0153,0.1934 0.00982,0.0446 0.01682,0.0643 0.02382,0.0841 0.0027,0.0432 0.0054,0.0863 0.01072,0.1543 0.01058,0.0446 0.01855,0.0644 0.02652,0.0842 0.0136,0.0957 0.0272,0.1914 0.04452,0.3144 0.01537,0.0581 0.02702,0.089 0.03867,0.1199 0.07993,0.3113 0.13921,0.6297 0.24483,0.932 0.14505,0.4152 0.32521,0.8181 0.49963,1.25 0.03204,0.0596 0.05479,0.0955 0.07754,0.1313 0.01715,0.0425 0.0343,0.085 0.0585,0.1451 0.01035,0.0273 0.01715,0.0329 0.02745,0.034 0,0 -0.00102,0.0031 0.00148,0.0161 0.02602,0.0473 0.04954,0.0817 0.07307,0.116 0.22698,0.3624 0.45397,0.7249 0.6905,1.1019 0.0095,0.0146 0.01699,0.0225 0.01699,0.0225 l 0.01086,-5e-4 c 0,0 0.001,0.0094 0.0086,0.0235 0.07957,0.1025 0.15156,0.1908 0.22356,0.2791 0.03332,0.0464 0.06665,0.0928 0.11404,0.1576 0.23697,0.2597 0.45553,0.5052 0.68452,0.7404 0.12278,0.1262 0.26351,0.2349 0.39614,0.3515 0.0096,0.0122 0.01914,0.0244 0.04404,0.0519 0.04728,0.0358 0.07925,0.0564 0.11121,0.0769 0.0086,0.0105 0.0173,0.021 0.0416,0.0461 0.20863,0.1594 0.40162,0.3041 0.5946,0.4488 0.06432,0.0464 0.12864,0.0928 0.21195,0.1531 0.04693,0.031 0.07489,0.0481 0.10285,0.0652 0.07522,0.0952 0.01113,0.1912 -0.0045,0.3104 -0.0066,0.0443 -0.0073,0.0651 -0.0081,0.0859 -0.03474,0.1611 -0.06949,0.3222 -0.11,0.5076 -0.0064,0.0452 -0.0071,0.0659 -0.0078,0.0866 -0.04902,0.2267 -0.09804,0.4534 -0.15338,0.7046 -0.0086,0.0456 -0.01091,0.0667 -0.0132,0.0877 -0.0056,0.0174 -0.01123,0.0348 -0.02315,0.0742 -0.0083,0.0427 -0.01018,0.0636 -0.01212,0.0844 -0.02191,0.0944 -0.04382,0.1888 -0.07398,0.311 -0.02337,0.0947 -0.03083,0.1647 -0.05689,0.227 -0.01307,0.0312 -0.06003,0.0483 -0.09167,0.0718 -0.06967,-0.0442 -0.13934,-0.0884 -0.23016,-0.1453 -0.06741,-0.0361 -0.11367,-0.0596 -0.15993,-0.083 -0.06446,-0.0445 -0.12893,-0.0891 -0.21279,-0.1476 -0.10182,-0.0619 -0.18423,-0.11 -0.26665,-0.1581 -0.03082,-0.0243 -0.06165,-0.0486 -0.11048,-0.0867 -0.05422,-0.0338 -0.09045,-0.0537 -0.12667,-0.0736 -0.08342,-0.0627 -0.16684,-0.1255 -0.26918,-0.2034 -0.09551,-0.072 -0.1721,-0.1287 -0.24869,-0.1854 -0.01419,-0.0147 -0.02838,-0.0293 -0.05856,-0.0574 -0.04349,-0.0306 -0.07099,-0.0478 -0.09849,-0.065 -0.02473,-0.0233 -0.04946,-0.0466 -0.0864,-0.0815 -0.01785,-0.0193 -0.02504,-0.0212 -0.0338,-0.0173 0,0 -0.0081,-0.0135 -0.01337,-0.0201 -0.0053,-0.0065 -0.01558,-0.0049 -0.01558,-0.0049 -0.06781,-0.0604 -0.13563,-0.1207 -0.21529,-0.1928 -0.01184,-0.0116 -0.0265,-0.0122 -0.0265,-0.0122 -0.34799,-0.3491 -0.69598,-0.6983 -1.05234,-1.0578 -0.00836,-0.0104 -0.01801,-0.0112 -0.01801,-0.0112 -0.05798,-0.0718 -0.11596,-0.1436 -0.18918,-0.2342 -0.05083,-0.053 -0.08643,-0.0874 -0.12203,-0.1217 0,0 -0.00538,0.0115 -0.00493,-0.0067 -0.05151,-0.0753 -0.10346,-0.1324 -0.15541,-0.1894 0,0 -0.0043,0.0088 -0.00362,-0.0075 -0.02674,-0.047 -0.05416,-0.0777 -0.08159,-0.1084 -0.0316,-0.0475 -0.0632,-0.095 -0.10839,-0.1611 -0.05165,-0.0639 -0.0897,-0.1092 -0.12775,-0.1544 0,0 -0.00213,0.0051 -0.00284,-0.0102 -0.04894,-0.0754 -0.09718,-0.1355 -0.14542,-0.1957 0,0 -0.0085,-0.0021 -0.00661,-0.0144 -0.04226,-0.074 -0.08642,-0.1356 -0.13058,-0.1973 -0.05548,-0.0926 -0.11096,-0.1852 -0.17901,-0.2968 -0.02681,-0.0365 -0.04106,-0.054 -0.05531,-0.0715 0,0 7.8e-4,-0.0014 -0.00214,-0.0149 -0.08058,-0.1366 -0.15825,-0.2595 -0.23592,-0.3825 -0.00807,-0.0213 -0.01614,-0.0426 -0.03419,-0.0846 -0.04642,-0.0814 -0.08286,-0.1422 -0.11929,-0.2029 -0.00604,-0.019 -0.01207,-0.038 -0.02471,-0.0713 -0.0066,-0.0144 -0.02085,-0.0224 -0.02085,-0.0224 -0.00449,-0.0143 -0.00898,-0.0286 -0.02392,-0.0618 -0.02419,-0.0381 -0.03793,-0.0573 -0.05168,-0.0765 -0.07525,-0.1627 -0.1505,-0.3255 -0.23445,-0.5123 -0.03275,-0.0687 -0.0568,-0.1133 -0.08084,-0.1579 -0.021099,-0.0595 -0.042197,-0.1189 -0.0729,-0.2024 -0.04741,-0.1116 -0.085217,-0.1992 -0.123023,-0.2867 0,0 9.66e-4,-0.0142 -0.00279,-0.0322 -0.017441,-0.0468 -0.031126,-0.0756 -0.044813,-0.1044 -3.99e-4,-0.008 -7.98e-4,-0.0161 -0.00607,-0.0481 -0.029678,-0.0811 -0.054487,-0.1381 -0.079296,-0.1951 -0.038346,-0.1234 -0.076694,-0.2468 -0.120592,-0.3943 -0.015454,-0.043 -0.025356,-0.0619 -0.035259,-0.0808 -0.031506,-0.1243 -0.063011,-0.2487 -0.102036,-0.3995 -0.022309,-0.0699 -0.037099,-0.1133 -0.05189,-0.1567 -0.017039,-0.0861 -0.034079,-0.1723 -0.054662,-0.281 -0.010627,-0.038 -0.017712,-0.0536 -0.024796,-0.0692 -0.00292,-0.032 -0.00584,-0.064 -0.01255,-0.1207 -0.012648,-0.0439 -0.021509,-0.0632 -0.030369,-0.0824 -0.00118,-0.0185 -0.00236,-0.0369 -0.00704,-0.0783 -0.012126,-0.0424 -0.020755,-0.0619 -0.029383,-0.0813 -0.00399,-0.0432 -0.00798,-0.0864 -0.015497,-0.1539 -0.011395,-0.0438 -0.019264,-0.0633 -0.027134,-0.0827 -0.01153,-0.0957 -0.023061,-0.1915 -0.036984,-0.3179 -0.0099,-0.0604 -0.017398,-0.09 -0.020787,-0.1297 -0.00314,-0.0295 -0.010397,-0.0491 -0.015651,-0.0846 -0.00466,-0.0582 -0.011317,-0.1003 -0.014708,-0.1569 -0.00743,-0.0707 -0.018129,-0.1268 -0.028828,-0.183 -0.0037,-0.082 -0.00741,-0.1639 -0.012519,-0.2766 -0.010161,-0.0998 -0.018912,-0.169 -0.027662,-0.2381 -0.00145,-0.2918 -0.00291,-0.5836 -0.00343,-0.9096 -0.00106,-0.0899 -0.00305,-0.1458 -0.00504,-0.2016 0.00502,-0.0941 0.010046,-0.1882 0.019749,-0.3124 0.00568,-0.1007 0.00668,-0.1713 0.00768,-0.2419 0.00895,-0.0809 0.017895,-0.1618 0.032064,-0.2709 0.00546,-0.0715 0.0057,-0.1148 0.012854,-0.174 0.01032,-0.0737 0.013726,-0.1314 0.023838,-0.1976 0.00503,-0.0288 0.00335,-0.0492 0.0097,-0.0831 0.00988,-0.0446 0.011735,-0.0756 0.013588,-0.1066 0.00442,-0.0184 0.00884,-0.0368 0.016471,-0.0715 0.00321,-0.0164 0.00595,-0.0267 0.00595,-0.0267 l -0.0094,-0.0049 c 0.012134,-0.0593 0.024268,-0.1187 0.041925,-0.2045 0.00495,-0.0472 0.00438,-0.0678 0.0038,-0.0884 0.014757,-0.0666 0.029514,-0.1332 0.053032,-0.2294 0.019473,-0.0996 0.030187,-0.1697 0.040901,-0.2398 0,0 0.00173,-0.011 0.00747,-0.0213 0.011047,-0.0414 0.01635,-0.0725 0.021654,-0.1036 0.021735,-0.0821 0.043468,-0.1642 0.071908,-0.27 0.0088,-0.0449 0.010892,-0.0659 0.020311,-0.099 0.011268,-0.0397 0.01521,-0.0674 0.019152,-0.095 0.01242,-0.034 0.024841,-0.0679 0.045705,-0.1267 0.037006,-0.1187 0.064294,-0.2131 0.094375,-0.3065 0.078104,-0.2426 0.157437,-0.4848 0.236279,-0.7272 0.018412,-0.0431 0.036824,-0.0861 0.065783,-0.1525 0.137551,-0.3202 0.264551,-0.617 0.391551,-0.9138 0.02503,-0.0445 0.05005,-0.0891 0.08699,-0.1542 0.03127,-0.0676 0.05061,-0.1146 0.06995,-0.1616 0,0 -0.00108,-0.0039 0.01009,-0.0092 0.27987,-0.4472004 0.54363,-0.8920804 0.81941,-1.3293804 0.13222,-0.20967 0.28719,-0.40499 0.43186,-0.6068 0,0 0.00167,3.7e-4 0.01304,-0.00625 0.46843,-0.56715 0.95234,-1.10218 1.5009,-1.57584 0.18334,-0.1583 0.36657,-0.31673 0.54985,-0.4751 0,0 -0.0024,-0.00196 0.01196,-0.00367 0.06202,-0.03696 0.11009,-0.07165 0.15725,-0.10754 0.67378,-0.51269 1.39248,-0.95224 2.15323,-1.32342 1.18986,-0.58056 2.44709,-0.93168 3.75462,-1.12219 1.2048,-0.17552 2.4072,-0.15789 3.6057,0.03152 1.0455,0.16523 2.0571,0.45833 3.0286,0.88455 1.6166,0.7092 3.0319,1.6997 4.2217,3.00742 0.1639,0.18011 0.3279,0.36013 0.4918,0.54019 0.0437,0.06049 0.0874,0.12098 0.146,0.20097 0.16,0.20788 0.3051,0.39626 0.4503,0.58464 0,0 0.0012,-9.5e-4 0.003,0.01237 0.0384,0.06205 0.0749,0.11078 0.1114,0.15952 0.0085,0.01855 0.0169,0.0371 0.0369,0.0738 0.0621,0.08976 0.1126,0.16138 0.163,0.233 0,0 0.0022,-0.00449 0.0022,0.00987 0.0321,0.0614 0.0642,0.10844 0.0963,0.15544 0.0234,0.0454 0.0468,0.0907 0.0834,0.1582 0.1988,0.3683004 0.3844,0.7143004 0.57,1.0604004 0.0233,0.0584 0.0465,0.1169 0.0787,0.1987 0.0327,0.068 0.0565,0.1126 0.0803,0.1573 0.0166,0.0479 0.0331,0.0959 0.06,0.1679 0.0402,0.092 0.0701,0.1599 0.1,0.2278 0.023,0.0713 0.046,0.1427 0.0771,0.2391 0.0319,0.0826 0.0557,0.1402 0.0794,0.1977 0.0118,0.0443 0.0236,0.0886 0.0421,0.1597 0.0444,0.1358 0.0822,0.2449 0.1199,0.3539 0.0231,0.0969 0.0463,0.1938 0.0757,0.3164 0.019,0.0568 0.0316,0.0879 0.0442,0.119 0.0346,0.1627 0.0692,0.3254 0.1097,0.5165 0.0204,0.0843 0.0349,0.1403 0.0495,0.1963 0.0175,0.122 0.035,0.244 0.0559,0.3909 0.0107,0.0445 0.0179,0.0642 0.0251,0.0838 0.0034,0.056 0.0067,0.112 0.0128,0.1985 0.0237,0.1524 0.0446,0.2742 0.0655,0.3961 -3e-4,0.018 -7e-4,0.0359 5e-4,0.0837 0.0143,0.1371 0.027,0.2444 0.0396,0.3518 8e-4,0.0554 0.0016,0.1108 0.0026,0.2006 0.0071,0.3921 0.0139,0.7499 0.0207,1.1078 -0.0094,0.1333 -0.0188,0.2666 -0.0333,0.4315 -0.0106,0.128 -0.0162,0.2246 -0.0217,0.3212 -0.0043,0.0298 -0.0087,0.0595 -0.0189,0.1169 -0.0199,0.1513 -0.0341,0.2751 -0.0482,0.3988 -0.0084,0.0547 -0.0168,0.1093 -0.0304,0.189 -0.0055,0.046 -0.0058,0.067 -0.0061,0.088 -0.009,0.0419 -0.018,0.0837 -0.0342,0.1542 -0.0345,0.1792 -0.0619,0.3298 -0.0892,0.4804 -0.0076,0.029 -0.0151,0.0581 -0.0302,0.1141 -0.0666,0.2564 -0.1215,0.4869 -0.1854,0.715 -0.4245,1.5158 -1.135,2.8876 -2.0867,4.1377 -0.1311,0.1721 -0.2596,0.3461 -0.3893,0.5193 0,0 0.0011,0.0032 -0.0125,0.0073 -0.2886,0.2921 -0.564,0.5799 -0.8383,0.8687 -0.0353,0.0372 -0.0645,0.08 -0.0965,0.1203 0,0 0.0092,0.0055 -0.0082,0.0058 -0.1131,0.0924 -0.2088,0.1846 -0.3045,0.2768 0,0 0.0066,0.0048 -0.0089,0.0049 -0.7048,0.5733 -1.4185,1.1104 -2.232,1.5328 -0.0333,-0.1164 -0.0599,-0.2094 -0.0865,-0.3024 -0.0118,-0.0696 -0.0235,-0.1392 -0.0392,-0.2387 -0.0307,-0.1379 -0.0576,-0.2459 -0.0844,-0.3539 -0.0018,-0.0304 -0.0036,-0.0609 -0.0088,-0.1159 -0.0123,-0.0439 -0.021,-0.0632 -0.0297,-0.0826 -0.0024,-0.0304 -0.0048,-0.0609 -0.011,-0.1155 -0.0121,-0.0437 -0.0204,-0.0631 -0.0287,-0.0826 -3e-4,-0.0179 -6e-4,-0.0358 -0.0038,-0.0822 -0.0408,-0.1894 -0.0787,-0.3503 -0.1166,-0.5112 -0.0035,-0.0335 -0.0069,-0.0669 -0.015,-0.1205 -0.0056,-0.0297 -0.0107,-0.0361 -0.0198,-0.0394 -7e-4,-0.0178 -0.0014,-0.0356 -0.0044,-0.0816 -0.0139,-0.0924 -0.018,-0.1592 -0.0388,-0.2203 -0.0373,-0.1099 -0.0106,-0.1848 0.089,-0.2476 0.1103,-0.0695 0.2164,-0.1474 0.3175,-0.23 0.2422,-0.1979 0.4804,-0.4007 0.7203,-0.6014 0,0 0.0167,-0.006 0.0293,-0.0138 0.0222,-0.0132 0.0264,-0.0215 0.025,-0.0326 0.0261,-0.0191 0.0523,-0.0382 0.0964,-0.0724 0.0774,-0.0772 0.1369,-0.1394 0.1965,-0.2016 0.0133,-0.0015 0.0236,-0.0079 0.0461,-0.0332 0.1836,-0.1889 0.3611,-0.3558 0.518,-0.5402 0.1902,-0.2237 0.363,-0.4621 0.5434,-0.6941 0,0 -0.0028,-0.0027 0.0099,-0.0072 0.2121,-0.3195 0.4115,-0.6344 0.611,-0.9494 0,0 0.0079,-0.0045 0.012,-0.0086 0.0042,-0.004 0.0016,-0.0159 0.0016,-0.0159 0.0178,-0.0287 0.0356,-0.0575 0.0679,-0.1101 0.038,-0.0755 0.0615,-0.1273 0.085,-0.1791 0,0 0.0089,-0.0088 0.0193,-0.0243 0.0536,-0.1089 0.0968,-0.2024 0.1466,-0.3002 0.0147,-0.0131 0.0162,-0.0229 0.0111,-0.0338 0.0217,-0.0421 0.0434,-0.0842 0.0758,-0.1471 0.0145,-0.0348 0.0184,-0.0488 0.0283,-0.065 0.0131,-0.0104 0.0124,-0.0179 0.0039,-0.0246 0.037,-0.0821 0.074,-0.1642 0.1221,-0.2704 0.0822,-0.2292 0.1532,-0.4343 0.2242,-0.6394 0.0049,-0.013 0.0098,-0.026 0.0236,-0.0602 0.0458,-0.153 0.0827,-0.2848 0.1195,-0.4167 0.0064,-0.0169 0.0128,-0.0339 0.0274,-0.0753 0.0221,-0.0969 0.0361,-0.1693 0.0501,-0.2416 0.0061,-0.0174 0.0122,-0.0347 0.0256,-0.0773 0.0219,-0.11 0.0365,-0.1948 0.0511,-0.2796 0.0065,-0.0173 0.0129,-0.0346 0.0265,-0.0755 0.0084,-0.0565 0.0096,-0.0894 0.0109,-0.1222 0.0076,-0.0297 0.0151,-0.0595 0.0293,-0.1162 0.0109,-0.0848 0.0153,-0.1427 0.0196,-0.2005 0.0045,-0.0178 0.0089,-0.0356 0.02,-0.0786 0.0099,-0.0831 0.0133,-0.1409 0.0167,-0.1988 0.0065,-0.0423 0.013,-0.0846 0.0256,-0.1552 0.0096,-0.0991 0.0131,-0.17 0.0166,-0.2408 0.005,-0.0301 0.01,-0.0602 0.0208,-0.1187 0.0099,-0.2713 0.0171,-0.5141 0.0164,-0.7568 -3e-4,-0.1034 -0.0171,-0.2066 -0.0265,-0.31 -2e-4,-0.0557 -5e-4,-0.1115 -0.0013,-0.1996 -0.013,-0.1268 -0.0254,-0.2212 -0.0378,-0.3155 -0.0013,-0.0431 -0.0026,-0.0862 -0.0058,-0.1577 -0.0117,-0.0723 -0.0215,-0.1163 -0.0313,-0.1602 -0.0029,-0.0557 -0.0058,-0.1115 -0.0108,-0.1945 -0.0116,-0.0588 -0.0212,-0.0903 -0.0308,-0.1217 -0.0015,-0.0323 -0.003,-0.0646 -0.007,-0.1226 -0.0116,-0.0539 -0.0208,-0.0819 -0.0299,-0.1099 -2e-4,-0.0131 -3e-4,-0.0262 -0.0056,-0.0637 -0.0241,-0.1037 -0.0432,-0.183 -0.0623,-0.2623 -0.0241,-0.1261 -0.0483,-0.2521 -0.0761,-0.395 -0.0035,-0.0168 -0.0147,-0.0265 -0.0147,-0.0265 -0.0021,-0.0206 -0.0041,-0.0412 -0.0102,-0.0866 -0.0142,-0.0437 -0.0243,-0.0626 -0.0344,-0.0815 -0.0034,-0.0216 -0.0068,-0.0431 -0.0149,-0.0822 -0.0054,-0.0263 -0.0103,-0.0308 -0.0191,-0.0311 -0.0202,-0.0739 -0.0403,-0.1478 -0.0676,-0.2489 -0.0471,-0.1361 -0.0872,-0.245 -0.1273,-0.3538 -0.0176,-0.0605 -0.0352,-0.121 -0.0628,-0.2041 -0.0296,-0.0686 -0.0493,-0.1146 -0.069,-0.1605 0,0 -0.002,-0.0171 -0.0102,-0.037 -0.0224,-0.0446 -0.0366,-0.0693 -0.0508,-0.094 0,0 0.0036,-0.0108 -7e-4,-0.0297 -0.077,-0.1801 -0.1429,-0.3446 -0.2237,-0.5015 -0.1045,-0.2029 -0.2208,-0.3996 -0.332,-0.599 -0.0237,-0.0457 -0.0474,-0.0914 -0.0826,-0.1599 -0.2183,-0.3201 -0.4251,-0.6173 -0.632,-0.9145004 6e-4,-0.012 -0.0033,-0.0222 -0.024,-0.0478 -0.3966,-0.50992 -0.8246,-0.96192 -1.2961,-1.37169 -0.1474,-0.12807 -0.3075,-0.24153 -0.4617,-0.36168 0,0 -0.004,0.00352 -0.0072,-0.00969 -0.0373,-0.04429 -0.0688,-0.07896 -0.1059,-0.10593 -0.5938,-0.43155 -1.2172,-0.81515 -1.8914,-1.10644 -0.1354,-0.0585 -0.3089,-0.03266 -0.4651,-0.03591 -0.029,-6e-4 -0.0639,0.04172 -0.0877,0.07107 -0.2034,0.25108 -0.4063,0.50258 -0.6066,0.75615 -0.4496,0.56923 -0.8983,1.13912 -1.3454,1.71032 -0.0658,0.08405 -0.135,0.12077 -0.2501,0.11707 -0.2762,-0.00889 -0.5532,0.00554 -0.8468,0.00565 -0.0984,-0.00145 -0.1798,0.00201 -0.2757,0.00103 -0.044,-0.00153 -0.0737,0.00139 -0.1212,-6.8e-4 -0.231,-0.00178 -0.4441,0.00141 -0.6752,1.7e-4 -0.3079,-0.00401 -0.5978,-0.0061 -0.8877,-0.00178 -0.1004,0.00149 -0.1775,-0.02716 -0.239,-0.10884 -0.0832,-0.11032 -0.1724,-0.21607 -0.259,-0.32381 -0.173,-0.21528 -0.346,-0.43057 -0.5191,-0.65216 -0.0043,-0.01505 -0.0112,-0.01893 -0.0209,-0.01794 z"
     fill="#007aff"
     id="path2" />
  <path
     d="m 23.559638,25.371831 c 0.0295,0.1617 0.059,0.3234 0.0922,0.5118 0.013,0.058 0.0222,0.0893 0.0314,0.1205 0.0144,0.0835 0.0288,0.1669 0.047,0.2747 0.0123,0.0439 0.0206,0.0634 0.0289,0.0829 0.007,0.0484 0.0139,0.0967 0.0244,0.1609 0.0036,0.0159 0.0135,0.025 0.0135,0.025 0.0033,0.0337 0.0067,0.0674 0.0138,0.1263 0.0116,0.0448 0.0195,0.0645 0.0274,0.0841 0.0029,0.0307 0.0058,0.0614 0.0125,0.1156 0.0117,0.0432 0.0196,0.0628 0.0274,0.0824 0.0064,0.0477 0.0128,0.0955 0.0227,0.1606 0.0034,0.0173 0.0147,0.0275 0.0147,0.0275 0.0019,0.0216 0.0037,0.0432 0.009,0.0913 0.0137,0.0565 0.024,0.0864 0.0343,0.1163 0.0061,0.048 0.0121,0.0959 0.0214,0.161 0.0032,0.0171 0.0144,0.0271 0.0144,0.0271 0.0013,0.0203 0.0026,0.0407 0.0072,0.0877 0.0142,0.058 0.0249,0.0893 0.0357,0.1207 0.0067,0.0484 0.0134,0.0968 0.0237,0.1608 0.0036,0.0156 0.0132,0.0247 0.0132,0.0247 0.0182,0.1 0.0364,0.2001 0.0592,0.3285 0.0233,0.0985 0.042,0.1687 0.0607,0.2389 0.0027,0.0305 0.0054,0.061 0.0115,0.1154 0.0112,0.0436 0.0192,0.0633 0.0272,0.083 0.0227,0.1229 0.0455,0.2457 0.0725,0.3984 0.0263,0.1264 0.0484,0.2231 0.0704,0.3197 0.0272,0.1642 0.0543,0.3284 0.0813,0.5128 -3e-4,0.0202 0.0039,0.0282 0.0039,0.0282 -0.0068,0.0076 -0.0135,0.0151 -0.0382,0.0408 -0.0508,0.0537 -0.0836,0.0894 -0.1164,0.1251 0,0 0.0025,0.002 -0.0108,0.0055 -0.1115,0.1061 -0.2097,0.2088 -0.308,0.3115 -0.0133,8e-4 -0.0239,0.0067 -0.0468,0.0304 -0.0472,0.0509 -0.0793,0.0889 -0.1113,0.127 0,0 0.0033,0.003 -0.0097,0.0056 -0.058,0.0528 -0.1029,0.1031 -0.1479,0.1534 0,0 0.0031,0.0023 -0.0104,0.0056 -0.2173,0.2117 -0.421,0.4202 -0.6248,0.6287 -0.0134,0.0013 -0.0238,0.0076 -0.0458,0.0324 -0.0469,0.0508 -0.0792,0.0881 -0.1115,0.1254 0,0 0.0032,0.0025 -0.0104,0.0056 -0.1299,0.1181 -0.2477,0.2317 -0.3623,0.3483 -0.2334,0.2376 -0.465,0.4768 -0.6974,0.7154 0,0 0.0038,0.0022 -0.0103,0.0043 -0.232,0.2243 -0.45,0.4464 -0.668,0.6685 -0.0127,0.001 -0.0224,0.0068 -0.0444,0.0306 -0.1005,0.1034 -0.1859,0.1937 -0.2712,0.284 0,0 0.0052,0.0035 -0.009,0.0046 -0.0593,0.0519 -0.1045,0.1027 -0.1497,0.1536 0,0 0.0058,0.004 -0.0088,0.005 -0.0611,0.0522 -0.1076,0.1034 -0.1541,0.1547 -0.2722,0.2652 -0.5443,0.5304 -0.8333,0.8127 -0.0386,0.0438 -0.0604,0.0705 -0.0822,0.0972 -0.0109,7e-4 -0.0193,0.0057 -0.0397,0.0277 -0.0996,0.1058 -0.1846,0.1986 -0.2697,0.2915 -0.016,0.003 -0.032,0.006 -0.0667,-0.0017 -0.0782,-0.0715 -0.1377,-0.1324 -0.1811,-0.1931 0.1366,0.0093 0.1783,-0.0509 0.1791,-0.1664 0.0013,-0.2014 -0.0271,-0.4011 -0.0059,-0.6047 0.0248,-0.239 0.0151,-0.4814 0.0221,-0.7222 0.0033,-0.1148 0.014,-0.2294 0.0152,-0.3441 0.0014,-0.1217 -0.0034,-0.2436 -0.0075,-0.3653 -0.0058,-0.1737 -0.0208,-0.3474 -0.0182,-0.521 0.003,-0.1964 0.0257,-0.3925 0.031,-0.5889 0.0045,-0.1646 -0.0017,-0.3296 -0.0067,-0.4944 -0.0082,-0.2667 -0.0255,-0.5332 -0.0266,-0.7999 -7e-4,-0.1566 0.0306,-0.3132 0.0331,-0.4701 0.0054,-0.3496 -0.0027,-0.6995 0.0033,-1.0491 0.0035,-0.203 0.0251,-0.4057 0.0355,-0.6086 0.0034,-0.0656 10e-5,-0.1319 -0.0052,-0.1974 -0.0084,-0.1042 -0.0305,-0.2081 -0.0306,-0.3121 -0.0018,-2.3821 -0.0014,-4.7641 -0.0015,-7.1462 0,-0.0659 0.0153,-0.1377 -0.0051,-0.1969 -0.1028,-0.2969 0.0222,-0.5967 -0.0207,-0.897 -0.0256,-0.1788 0.0447,-0.3686 -0.0103,-0.5542 -0.0106,-0.0359 -6e-4,-0.0786 0.0029,-0.1179 0.0103,-0.1172 0.0326,-0.2344 0.0318,-0.3515 -0.0109,-1.539 0.0276,-3.0781 -0.0351,-4.617 -0.0376,-0.9213 0.042,-1.8449 -0.0413,-2.7662 -0.016,-0.1762 -0.0218,-0.1928 -0.196,-0.239 -0.0444,-0.0118 -0.0881,-0.0275 -0.1332,-0.0343 -0.0822,-0.0125 -0.1097,-0.0632 -0.0898,-0.1434 0.5992,-0.0049 1.1803,-0.0052 1.7652,3e-4 0.0161,0.0053 0.0283,0.005 0.0471,0.0065 0.0065,0.0019 0.0201,0.0021 0.0201,0.0021 0.0101,0.062 0.0202,0.124 0.0339,0.2093 0.0107,0.0427 0.0176,0.0621 0.0246,0.0815 0.0033,0.031 0.0066,0.0619 0.0134,0.1164 0.0111,0.0428 0.0186,0.0622 0.0262,0.0816 0.0289,0.1492 0.0578,0.2983 0.0906,0.4719 0.0115,0.0441 0.0192,0.0636 0.0269,0.0831 0.0033,0.0309 0.0066,0.0617 0.0137,0.1161 0.0115,0.0428 0.0193,0.0622 0.0271,0.0816 0.0169,0.0965 0.0338,0.1929 0.0546,0.3136 0.0113,0.0435 0.0186,0.0628 0.026,0.0822 0.0013,0.0187 0.0027,0.0374 0.0076,0.0786 0.0114,0.0421 0.0192,0.0617 0.027,0.0813 7e-4,0.0181 0.0013,0.0362 0.0048,0.0793 0.0131,0.0564 0.0234,0.0878 0.0336,0.1192 0.0445,0.2407 0.0891,0.4815 0.1375,0.7472 0.0112,0.0444 0.0185,0.0638 0.0258,0.0832 0.0012,0.0186 0.0024,0.0372 0.0069,0.0784 0.0121,0.0421 0.0208,0.0616 0.0295,0.0811 0.0166,0.0962 0.0332,0.1924 0.0537,0.3128 0.0114,0.0438 0.019,0.0634 0.0267,0.083 0.0025,0.0307 0.005,0.0613 0.011,0.1158 0.0114,0.0434 0.0193,0.0631 0.0272,0.0827 8e-4,0.0181 0.0016,0.0363 0.0056,0.0793 0.0143,0.0559 0.0253,0.0869 0.0363,0.118 0.0068,0.049 0.0135,0.098 0.0251,0.1609 0.0048,0.014 0.0116,0.0224 0.0116,0.0224 0.0042,0.0346 0.0084,0.0692 0.0168,0.129 0.0117,0.0447 0.0192,0.0642 0.0266,0.0836 0.0032,0.031 0.0064,0.0619 0.0134,0.1164 0.0115,0.0428 0.0192,0.0621 0.027,0.0815 0.0015,0.0186 0.003,0.0373 0.0079,0.0784 0.0112,0.0421 0.019,0.0619 0.0267,0.0816 0.0048,0.0433 0.0096,0.0865 0.0185,0.1539 0.0118,0.0434 0.0194,0.0626 0.027,0.0819 0.0185,0.0979 0.0371,0.1958 0.0612,0.3222 0.0223,0.0967 0.0389,0.1648 0.0556,0.2329 0.0199,0.1151 0.0397,0.2302 0.0632,0.3599 0.0037,0.0146 0.0126,0.0236 0.0126,0.0236 0.0037,0.034 0.0073,0.0681 0.0155,0.1314 0.0249,0.1122 0.0451,0.1952 0.0653,0.2781 0.0164,0.0963 0.0328,0.1925 0.0534,0.313 0.0119,0.0437 0.0196,0.0632 0.0273,0.0827 0.003,0.031 0.0059,0.0619 0.0138,0.1203 0.0254,0.1102 0.046,0.1928 0.0666,0.2754 0.003,0.031 0.0061,0.062 0.0129,0.1165 0.011,0.043 0.0183,0.0626 0.0255,0.0821 0.0034,0.0308 0.0068,0.0617 0.014,0.116 0.0115,0.0429 0.0192,0.0623 0.0268,0.0817 0.0033,0.0306 0.0065,0.0612 0.0143,0.1186 0.0232,0.0977 0.0417,0.1685 0.0602,0.2394 0.0025,0.0303 0.0049,0.0606 0.0108,0.1168 0.0137,0.0569 0.024,0.088 0.0342,0.1191 0.0034,0.0311 0.0068,0.0621 0.0141,0.1166 0.0111,0.0428 0.0182,0.0623 0.0253,0.0817 0.0118,0.0701 0.0236,0.1402 0.0388,0.2372 0.0139,0.0582 0.0245,0.0896 0.0351,0.1209 0.005,0.0433 0.0099,0.0865 0.0192,0.1539 0.0114,0.0434 0.0186,0.0628 0.0258,0.0822 0.0045,0.0343 0.009,0.0686 0.0171,0.1216 0.0037,0.0271 0.0079,0.0319 0.0164,0.0329 0.0126,0.0715 0.0251,0.1429 0.0411,0.2426 0.0162,0.0715 0.0289,0.1148 0.0416,0.1582 0.0163,0.0963 0.0326,0.1926 0.053,0.3131 0.0114,0.0439 0.0188,0.0635 0.0262,0.0831 0.003,0.0307 0.006,0.0613 0.0134,0.1195 0.0249,0.1106 0.0454,0.1936 0.0658,0.2766 0.0065,0.0478 0.0129,0.0956 0.0226,0.1609 0.0033,0.0175 0.0144,0.0284 0.0144,0.0284 0.007,0.0498 0.014,0.0997 0.0244,0.1685 0.0034,0.019 0.015,0.0308 0.015,0.0308 0.0101,0.0598 0.0203,0.1196 0.035,0.2078 0.0194,0.0841 0.0343,0.1397 0.0492,0.1954 0.0031,0.0309 0.0063,0.0619 0.0137,0.1163 0.0117,0.0428 0.0192,0.0621 0.0267,0.0815 0.0251,0.1357 0.0502,0.2715 0.0786,0.4347 0.0137,0.0588 0.0243,0.0902 0.0348,0.1215 0.0046,0.0432 0.0091,0.0864 0.0179,0.1538 0.0116,0.0436 0.0191,0.063 0.0267,0.0824 0.0252,0.1356 0.0504,0.2712 0.0789,0.4344 0.0141,0.0591 0.025,0.0905 0.0358,0.122 0.0205,0.1145 0.0411,0.2291 0.0655,0.3585 0.0039,0.0148 0.0133,0.0238 0.0133,0.0238 0.0306,0.1662 0.0613,0.3324 0.0958,0.5234 0.0115,0.0442 0.0191,0.0637 0.0267,0.0831 0.0037,0.031 0.0075,0.0619 0.015,0.1162 0.0109,0.0428 0.0181,0.0623 0.0253,0.0817 0.0031,0.0308 0.0061,0.0617 0.0136,0.1195 0.0235,0.0974 0.0427,0.1677 0.0619,0.2381 0.003,0.0305 0.0061,0.061 0.0124,0.1153 0.0115,0.0435 0.0196,0.0631 0.0278,0.0827 0.0261,0.1486 0.0521,0.2972 0.0818,0.4733 0.0144,0.0587 0.0252,0.0899 0.036,0.1212 z"
     fill="#006ce2"
     id="path3" />
  <path
     d="m 18.252845,10.655831 c -0.0018,0.0756 0.0257,0.1263 0.1079,0.1388 0.0451,0.0068 0.0888,0.0225 0.1332,0.0342 0.1741,0.0462 0.18,0.0629 0.1959,0.2391 0.0834,0.9213 0.0038,1.8449 0.0414,2.7662 0.0627,1.5389 0.0242,3.078 0.0351,4.617 8e-4,0.117 -0.0215,0.2342 -0.0318,0.3515 -0.0035,0.0393 -0.0135,0.0819 -0.0029,0.1178 0.0549,0.1857 -0.0153,0.3754 0.0102,0.5543 0.043,0.3003 -0.082,0.6 0.0207,0.897 0.0205,0.0592 0.0051,0.131 0.0052,0.1969 10e-5,2.3821 -3e-4,4.7641 0.0015,7.1462 10e-5,0.104 0.0221,0.2079 0.0306,0.3121 0.0053,0.0655 0.0086,0.1318 0.0052,0.1974 -0.0104,0.2029 -0.032,0.4056 -0.0355,0.6086 -0.006,0.3496 0.002,0.6995 -0.0033,1.0491 -0.0025,0.1568 -0.0338,0.3134 -0.0331,0.4701 0.0011,0.2666 0.0184,0.5332 0.0266,0.7999 0.005,0.1647 0.0112,0.3297 0.0067,0.4943 -0.0053,0.1965 -0.0281,0.3926 -0.031,0.589 -0.0026,0.1736 0.0124,0.3473 0.0182,0.521 0.0041,0.1217 0.0089,0.2436 0.0075,0.3653 -0.0012,0.1147 -0.0119,0.2293 -0.0152,0.344 -0.007,0.2409 0.0027,0.4833 -0.0221,0.7222 -0.0212,0.2037 0.0072,0.4034 0.0059,0.6048 -8e-4,0.1155 -0.0425,0.1756 -0.188,0.1585 -0.0449,-0.0212 -0.0647,-0.0343 -0.0846,-0.0474 -8e-4,-0.0109 -0.0058,-0.0193 -0.0278,-0.0393 -0.0526,-0.0477 -0.0924,-0.0812 -0.1321,-0.1146 -0.1101,-0.1122 -0.2202,-0.2244 -0.3461,-0.3539 -0.0409,-0.0377 -0.066,-0.058 -0.0911,-0.0784 -0.0699,-0.0739 -0.1398,-0.1479 -0.2258,-0.2394 -0.0543,-0.0505 -0.0926,-0.0836 -0.1308,-0.1167 -0.0014,-0.0127 -0.0074,-0.0226 -0.0314,-0.0447 -0.1041,-0.1005 -0.1951,-0.1859 -0.286,-0.2712 -0.0182,-0.0224 -0.0364,-0.0447 -0.0688,-0.0828 -0.0394,-0.0358 -0.0645,-0.0558 -0.0896,-0.0759 -0.0013,-0.0128 -0.0074,-0.0228 -0.0309,-0.0442 -0.0377,-0.0345 -0.0629,-0.0545 -0.088,-0.0745 -0.0441,-0.0481 -0.0882,-0.0961 -0.1477,-0.1612 -0.0537,-0.0497 -0.0919,-0.0822 -0.1301,-0.1148 -0.058,-0.0612 -0.116,-0.1224 -0.1905,-0.2008 -0.0795,-0.0765 -0.1426,-0.1356 -0.20561,-0.1948 -0.334,-0.3388 -0.66799,-0.6776 -1.01828,-1.0345 -0.09378,-0.0905 -0.17125,-0.1629 -0.24872,-0.2353 -0.03235,-0.0347 -0.0647,-0.0694 -0.11285,-0.1198 -0.04674,-0.0395 -0.07769,-0.0635 -0.10863,-0.0875 0,0 -0.0037,8e-4 -0.0067,-0.012 -0.03242,-0.039 -0.06178,-0.0651 -0.09113,-0.0913 -0.0021,-0.0139 -0.0091,-0.0247 -0.03453,-0.0474 -0.05038,-0.0472 -0.08703,-0.0795 -0.12368,-0.1118 -0.05754,-0.0625 -0.11508,-0.125 -0.18899,-0.2041 -0.05347,-0.0489 -0.09056,-0.0811 -0.12765,-0.1134 -0.0019,-0.0137 -0.0086,-0.0244 -0.03394,-0.0468 -0.05061,-0.0471 -0.08752,-0.0794 -0.12444,-0.1117 -0.0019,-0.0137 -0.0087,-0.0244 -0.03396,-0.0468 -0.05075,-0.0467 -0.08781,-0.0787 -0.12487,-0.1106 -0.05836,-0.0623 -0.11672,-0.1245 -0.19267,-0.2052 -0.13071,-0.1046 -0.15946,-0.2165 -0.12402,-0.3513 0.0097,-0.0369 0.006,-0.0773 0.0085,-0.1162 0.01034,-0.042 0.02069,-0.084 0.0374,-0.1522 0.01012,-0.0592 0.01387,-0.0922 0.01763,-0.1252 0.005,-0.0174 0.01007,-0.0348 0.0222,-0.0778 0.03347,-0.1761 0.05984,-0.3264 0.0862,-0.4768 0.0084,-0.0294 0.01684,-0.0588 0.03129,-0.1118 0.0073,-0.0445 0.0086,-0.0655 0.0099,-0.0865 0.0082,-0.0294 0.01639,-0.0587 0.03187,-0.1149 0.03228,-0.1644 0.05727,-0.3019 0.08226,-0.4394 0.0089,-0.0296 0.01777,-0.0591 0.03218,-0.1125 0.0053,-0.0444 0.0052,-0.0651 0.005,-0.0857 0.0097,-0.0295 0.01935,-0.059 0.03585,-0.1159 0.02351,-0.1251 0.04019,-0.2228 0.05688,-0.3205 0.0054,-0.0173 0.01077,-0.0346 0.02278,-0.0754 0.0096,-0.0564 0.01261,-0.0892 0.01561,-0.1221 0.0069,-0.0293 0.01386,-0.0587 0.02705,-0.1112 0.0085,-0.0445 0.01081,-0.0657 0.01308,-0.0869 0.0053,-0.0176 0.0107,-0.0351 0.02291,-0.0786 0.03791,-0.1892 0.06898,-0.3523 0.10004,-0.5154 0.0049,-0.0175 0.0098,-0.0349 0.0206,-0.074 0.0078,-0.0427 0.0097,-0.0638 0.0116,-0.0848 0.0077,-0.0293 0.01548,-0.0585 0.03049,-0.1148 0.03512,-0.1778 0.06295,-0.3285 0.09079,-0.4793 0.0054,-0.0175 0.01076,-0.0351 0.02255,-0.0764 0.0103,-0.0564 0.01419,-0.089 0.01808,-0.1217 0.0053,-0.0175 0.01058,-0.0351 0.02262,-0.079 0.03734,-0.2024 0.06792,-0.3785 0.09849,-0.5546 0.005,-0.0176 0.01,-0.0351 0.02243,-0.0782 0.04966,-0.2419 0.09187,-0.4582 0.13408,-0.6746 0.0054,-0.0174 0.01078,-0.0349 0.02337,-0.0784 0.06174,-0.3082 0.11628,-0.5903 0.17083,-0.8724 0.0077,-0.0293 0.01537,-0.0585 0.03042,-0.1149 0.02091,-0.0842 0.03682,-0.1406 0.04762,-0.1981 0.06479,-0.3445 0.1284,-0.6892 0.1924,-1.0339 0.0087,-0.0295 0.01744,-0.0591 0.03329,-0.1164 0.04187,-0.2175 0.07661,-0.4071 0.11135,-0.5968 0,0 0.0026,-0.0014 0.0066,-0.005 0.004,-0.0035 0.0071,-0.0134 0.0071,-0.0134 l -0.0085,-0.0061 c 0.01183,-0.046 0.02367,-0.0921 0.0413,-0.1643 0.0072,-0.047 0.0086,-0.0678 0.01001,-0.0885 0.0084,-0.0294 0.01673,-0.0588 0.03228,-0.1156 0.03204,-0.1645 0.0569,-0.3015 0.08177,-0.4386 0.01063,-0.0418 0.02126,-0.0836 0.03826,-0.1499 0.0088,-0.0457 0.01117,-0.0669 0.01356,-0.0882 0.0069,-0.0292 0.01371,-0.0584 0.02827,-0.1145 0.04823,-0.2438 0.08875,-0.4607 0.12928,-0.6776 0.007,-0.0293 0.01405,-0.0586 0.02847,-0.1151 0.03536,-0.1778 0.06332,-0.3285 0.09128,-0.4792 0.0067,-0.0293 0.01338,-0.0586 0.02635,-0.1112 0.0086,-0.0444 0.01099,-0.0657 0.01334,-0.0869 0.0051,-0.0175 0.0102,-0.035 0.02251,-0.0784 0.03492,-0.1759 0.06263,-0.3261 0.09033,-0.4762 0.0079,-0.0294 0.01574,-0.0589 0.02964,-0.1118 0.0074,-0.0444 0.0088,-0.0654 0.01021,-0.0864 0.0083,-0.0292 0.01658,-0.0585 0.0322,-0.1151 0.03511,-0.1778 0.06289,-0.3284 0.09068,-0.4789 0.0068,-0.0295 0.01351,-0.059 0.02753,-0.1159 0.04537,-0.2305 0.08347,-0.4336 0.12158,-0.6367 0.0088,-0.0294 0.01756,-0.0589 0.03179,-0.1174 0.04995,-0.2575 0.09445,-0.486 0.13895,-0.7145 0.0048,-0.0176 0.0096,-0.0352 0.0202,-0.0748 0.0062,-0.0425 0.0069,-0.0632 0.0075,-0.0839 0.009,-0.0292 0.018,-0.0585 0.0338,-0.1152 0.0245,-0.1253 0.0423,-0.223 0.06,-0.3208 0.0049,-0.0173 0.0097,-0.0346 0.0203,-0.0737 0.006,-0.0427 0.0064,-0.0636 0.0067,-0.0845 0.0085,-0.0294 0.017,-0.0589 0.0319,-0.1138 0.0105,-0.0582 0.0146,-0.091 0.0186,-0.1238 0.0053,-0.0173 0.0105,-0.0347 0.0231,-0.0778 0.0676,-0.3123 0.1291,-0.5986 0.1876,-0.8855 0.0232,-0.114 0.0397,-0.2293 0.0593,-0.344 0.0077,-0.0294 0.0154,-0.0589 0.0298,-0.1135 0.0102,-0.0581 0.0137,-0.0911 0.0172,-0.1241 0.0051,-0.0175 0.0103,-0.0349 0.0228,-0.0779 0.0367,-0.1892 0.0661,-0.3527 0.0954,-0.5163 0.0049,-0.0176 0.0097,-0.0353 0.0218,-0.0786 0.0477,-0.2418 0.0881,-0.458 0.1285,-0.6742 0.0081,-0.0295 0.0161,-0.059 0.0319,-0.1155 0.0536,-0.2166 0.0995,-0.4063 0.1575,-0.6034 0.1209,-0.1095 0.2458,-0.1639 0.3987,-0.1533 0.0977,0.0068 0.1963,-10e-5 0.2944,0.0013 0.0681,9e-4 0.0925,-0.0361 0.1055,-0.1027 0.0307,-0.0021 0.0485,7e-4 0.0663,0.0035 z"
     fill="#007aff"
     id="path4" />
  <path
     d="M 576.0737,-8.6567608 V -50.598311 h 6.0674 v 41.9415502 z m 26.37859,0 V -25.182811 c 0,-1.71027 -0.40151,-3.10236 -1.20455,-4.17625 -0.80303,-1.0739 -1.84401,-1.61084 -3.12293,-1.61084 -0.83278,0 -1.57633,0.23864 -2.23065,0.71592 -0.65433,0.4773 -1.17481,1.15344 -1.56146,2.02847 -0.35692,0.87503 -0.53537,1.88926 -0.53537,3.0427 l -2.27526,-1.55117 c 0,-2.26712 0.3569,-4.23592 1.07071,-5.90643 0.74355,-1.71027 1.75479,-3.0427 3.0337,-3.99727 1.30865,-0.95457 2.78088,-1.43185 4.4167,-1.43185 1.57635,0 2.98909,0.53693 4.23826,1.61083 1.24917,1.03413 2.23067,2.40633 2.94447,4.1166 0.71381,1.6705 1.07071,3.4802 1.07071,5.42914 v 18.2562002 z m -14.49928,0 V -37.472931 h 5.84432 v 28.8161702 z m 32.45715,0.65627 c -1.21944,0 -2.42399,-0.21876 -3.61367,-0.65627 -1.15995,-0.43752 -2.23066,-1.03412 -3.21216,-1.7898202 -0.98148,-0.79548 -1.82913,-1.75005 -2.54295,-2.86373 l 3.47983,-4.71319 c 0.74355,1.11366 1.60608,1.94891 2.58757,2.50574 0.98149,0.55684 2.06708,0.83526 3.25676,0.83526 0.95175,0 1.66556,-0.17898 2.14143,-0.53695 0.50562,-0.35797 0.75843,-0.89491 0.75843,-1.61084 0,-0.79547 -0.26768,-1.41197 -0.80303,-1.84949 -0.50562,-0.4375 -1.17482,-0.79547 -2.0076,-1.07389 -0.83278,-0.31819 -1.71018,-0.65628 -2.63218,-1.01424 -0.89226,-0.39774 -1.75478,-0.8949 -2.58756,-1.49151 -0.83279,-0.63638 -1.51685,-1.49152 -2.05222,-2.56542 -0.50561,-1.11367 -0.75842,-2.54553 -0.75842,-4.29557 0,-1.8296 0.32717,-3.42056 0.98149,-4.77288 0.68407,-1.3523 1.6507,-2.40631 2.89986,-3.16201 1.24917,-0.7557 2.7214,-1.13356 4.41671,-1.13356 1.78452,0 3.3906,0.41762 4.81822,1.25287 1.45736,0.83525 2.66193,2.08813 3.61368,3.75864 l -3.52445,4.7132 c -0.65433,-1.07389 -1.39788,-1.84949 -2.23066,-2.32677 -0.80304,-0.47729 -1.68043,-0.71594 -2.63218,-0.71594 -0.86252,0 -1.53172,0.179 -2.00759,0.53696 -0.44613,0.35796 -0.6692,0.85514 -0.6692,1.49151 0,0.71594 0.2528,1.27277 0.75842,1.67051 0.53537,0.39774 1.21943,0.7557 2.05221,1.0739 0.83279,0.27841 1.6953,0.61649 2.58757,1.01423 0.922,0.35796 1.78453,0.87501 2.58756,1.55118 0.83279,0.67616 1.50199,1.57106 2.0076,2.68474 0.53535,1.11367 0.80304,2.54552 0.80304,4.29556 0,2.82395 -0.75844,5.07118 -2.27528,6.74169 -1.51685,1.6307302 -3.58392,2.4460902 -6.20123,2.4460902 z m 12.41749,-0.65627 V -37.472931 h 5.88895 v 28.8161702 z m 2.94447,-33.4697202 c -0.95175,0 -1.73992,-0.41763 -2.3645,-1.25288 -0.62458,-0.87501 -0.93688,-1.94891 -0.93688,-3.22168 0,-1.23299 0.3123,-2.28699 0.93688,-3.16202 0.62458,-0.87502 1.41275,-1.31254 2.3645,-1.31254 0.98149,0 1.76966,0.43752 2.3645,1.31254 0.62458,0.87503 0.93688,1.92903 0.93688,3.16202 0,1.27277 -0.3123,2.34667 -0.93688,3.22168 -0.59484,0.83525 -1.38301,1.25288 -2.3645,1.25288 z m 17.22277,34.0663302 c -1.99271,0 -3.77725,-0.65628 -5.35358,-1.9688102 -1.57633,-1.31254 -2.8255,-3.10237 -3.74751,-5.36947 -0.89227,-2.26711 -1.3384,-4.81265 -1.3384,-7.63659 0,-2.86371 0.44613,-5.42913 1.3384,-7.69624 0.92201,-2.26711 2.15631,-4.05693 3.7029,-5.36948 1.57633,-1.31253 3.37573,-1.96879 5.39819,-1.96879 1.5466,0 2.92961,0.41761 4.14903,1.25287 1.24918,0.83525 2.24553,2.00858 2.9891,3.51998 0.77328,1.47164 1.18968,3.14215 1.24916,5.01151 v 10.26167 c -0.0595,1.86936 -0.461,3.55976 -1.20456,5.07116 -0.74355,1.51141 -1.73992,2.70462 -2.98908,3.5796502 -1.24917,0.87502 -2.64705,1.31254 -4.19365,1.31254 z m 0.9815,-7.2189602 c 1.10046,0 2.0522,-0.31819 2.85525,-0.95457 0.83278,-0.67616 1.47223,-1.59095 1.91836,-2.7444 0.47587,-1.19322 0.71382,-2.56542 0.71382,-4.11659 0,-1.51142 -0.23795,-2.84384 -0.71382,-3.99728 -0.44613,-1.19322 -1.08558,-2.10802 -1.91836,-2.7444 -0.80305,-0.67616 -1.73992,-1.01423 -2.81063,-1.01423 -1.10047,0 -2.06709,0.33807 -2.89987,1.01423 -0.80303,0.67616 -1.4425,1.59095 -1.91836,2.7444 -0.44614,1.15344 -0.6692,2.48586 -0.6692,3.99728 0,1.55117 0.22306,2.92337 0.6692,4.11659 0.47586,1.15345 1.1302,2.06824 1.96298,2.7444 0.83278,0.63638 1.76965,0.95457 2.81063,0.95457 z m 10.97484,6.6223502 h -5.79971 v -7.7559102 l 0.93688,-7.03998 -0.9815,-6.92064 v -21.41824 h 5.84433 z m 15.47573,0.59661 c -2.2604,0 -4.26799,-0.63638 -6.02278,-1.90914 -1.75478,-1.3125502 -3.15252,-3.1023702 -4.19349,-5.3694802 -1.01123,-2.26712 -1.51684,-4.85242 -1.51684,-7.7559 0,-2.86372 0.49073,-5.40925 1.47223,-7.63659 1.01123,-2.26711 2.37922,-4.05693 4.10426,-5.36948 1.72504,-1.3523 3.64341,-2.02846 5.75511,-2.02846 2.08194,0 3.91109,0.63638 5.48742,1.90915 1.60607,1.23299 2.85524,2.94326 3.7475,5.13082 0.92202,2.1478 1.38302,4.59389 1.38302,7.33829 0,0.51705 -0.0297,1.054 -0.0892,1.61084 -0.0297,0.51705 -0.10409,1.11366 -0.22307,1.78982 l -18.11281,0.0596 v -5.84676 l 15.3914,-0.0597 -2.36449,2.4461 c -0.0595,-1.71029 -0.29741,-3.14214 -0.71382,-4.29559 -0.38664,-1.15344 -0.96662,-2.02847 -1.73992,-2.62507 -0.74354,-0.63638 -1.66555,-0.95458 -2.76601,-0.95458 -1.15994,0 -2.17117,0.35797 -3.03369,1.07391 -0.86253,0.67614 -1.53172,1.6506 -2.00761,2.92337 -0.44613,1.233 -0.6692,2.70463 -0.6692,4.41489 0,1.75007 0.23795,3.28136 0.71382,4.5939 0.50562,1.27276 1.21944,2.26711 2.14143,2.98304 0.92201,0.67615 1.99274,1.01424 3.21216,1.01424 1.10046,0 2.09683,-0.23865 2.98908,-0.71594 0.89227,-0.51706 1.66555,-1.27276 2.3199,-2.26712 l 3.4352,4.59389 c -1.04097,1.63073 -2.31987,2.86372 -3.83672,3.6989702 -1.48711,0.83525 -3.10806,1.25288 -4.86286,1.25288 z m 13.83158,-0.59661 V -37.472931 h 5.84433 v 28.8161702 z m 5.84433,-15.9294402 -2.27526,-2.02847 c 0.26766,-3.53986 1.04096,-6.32403 2.31988,-8.3525 1.27891,-2.06825 3.12293,-3.10236 5.53204,-3.10236 1.04097,0 1.97785,0.23864 2.81063,0.71591 0.83277,0.43752 1.5912,1.17334 2.27527,2.20745 l -3.65828,5.60813 c -0.32717,-0.47729 -0.72868,-0.83525 -1.20456,-1.0739 -0.44612,-0.23864 -0.96662,-0.35796 -1.56146,-0.35796 -1.24918,0 -2.27528,0.53694 -3.07831,1.61084 -0.7733,1.03412 -1.15995,2.62508 -1.15995,4.77286 z m 10.82168,28.3389002 c -1.21943,0 -2.27528,-0.27843 -3.16754,-0.83527 -0.89225,-0.55683 -1.68043,-1.35231 -2.3645,-2.38642995 l 2.05221,-2.74440005 c 0.44614,0.71594 0.95175,1.23300005 1.51685,1.55119005 0.53535,0.31819 1.14507,0.47728 1.82914,0.47728 1.01123,0 1.87376,-0.39774 2.58757,-1.19321005 0.71381,-0.79548 1.07072,-2.04835 1.07072,-3.75863 V -36.697341 h 3.12292 v 31.5009102 c 0,1.94891 -0.31229,3.57964 -0.93687,4.89219005 -0.59485,1.35229995 -1.39788,2.36653995 -2.40912,3.04269995 -1.01123,0.67615 -2.11169,1.01424 -3.30138,1.01424 z m 5.0859,-46.5354502 c -0.59483,0 -1.10045,-0.27841 -1.51685,-0.83525 -0.41638,-0.59661 -0.62458,-1.29264 -0.62458,-2.08812 0,-0.83525 0.2082,-1.5313 0.62458,-2.08813 0.4164,-0.55683 0.92202,-0.83525 1.51685,-0.83525 0.65433,0 1.17482,0.27842 1.56147,0.83525 0.41639,0.55683 0.62458,1.25288 0.62458,2.08813 0,0.79548 -0.20819,1.49151 -0.62458,2.08812 -0.38665,0.55684 -0.90714,0.83525 -1.56147,0.83525 z m 17.39024,34.7226002 c -2.02247,0 -3.86648,-0.65628 -5.53205,-1.9688102 -1.63581,-1.31254 -2.94446,-3.08248 -3.92596,-5.30981 -0.95174,-2.22735 -1.42762,-4.71321 -1.42762,-7.45761 0,-2.70461 0.47588,-5.15071 1.42762,-7.33827 0.9815,-2.18757 2.29015,-3.91772 3.92596,-5.19049 1.66557,-1.31254 3.50958,-1.96881 5.53205,-1.96881 2.0522,0 3.89621,0.63638 5.53203,1.90915 1.63582,1.27276 2.92961,3.02281 3.88136,5.25015 0.98148,2.18756 1.47223,4.63366 1.47223,7.33827 0,2.78418 -0.49075,5.28993 -1.47223,7.51727 -0.95175,2.18757 -2.24554,3.93761 -3.88136,5.25015 -1.63582,1.3125302 -3.47983,1.9688102 -5.53203,1.9688102 z m 0,-4.0569402 c 1.4871,0 2.79576,-0.45739 3.92596,-1.3722 1.15995,-0.9148 2.06708,-2.18756 2.7214,-3.81829 0.68408,-1.63073 1.02611,-3.46033 1.02611,-5.4888 0,-2.02846 -0.34203,-3.81829 -1.02611,-5.36946 -0.65432,-1.59096 -1.56145,-2.84384 -2.7214,-3.75864 -1.1302,-0.9148 -2.43886,-1.3722 -3.92596,-1.3722 -1.45737,0 -2.76602,0.4574 -3.92597,1.3722 -1.15995,0.9148 -2.06708,2.16768 -2.7214,3.75864 -0.65433,1.55117 -0.98149,3.341 -0.98149,5.36946 0,2.06825 0.32716,3.91774 0.98149,5.54847 0.65432,1.59095 1.56145,2.84382 2.7214,3.75862 1.15995,0.91481 2.4686,1.3722 3.92597,1.3722 z m 26.69356,4.0569402 c -1.60607,0 -3.04857,-0.43752 -4.32748,-1.31254 -1.2789,-0.8750302 -2.33475,-2.0682402 -3.16753,-3.5796502 -0.80304,-1.55118 -1.29379,-3.341 -1.47224,-5.36948 v -8.77013 c 0.17845,-2.06824 0.68407,-3.85806 1.51685,-5.36948 0.83278,-1.55118 1.88862,-2.74439 3.16753,-3.57964 1.30865,-0.83525 2.73628,-1.25288 4.28287,-1.25288 1.93324,0 3.67316,0.65627 5.21974,1.96881 1.5466,1.27277 2.76603,3.02281 3.6583,5.25014 0.922,2.18757 1.383,4.67344 1.383,7.45761 0,2.7444 -0.44613,5.21037 -1.3384,7.39794 -0.89227,2.18756 -2.12656,3.93761 -3.7029,5.2501602 -1.54658,1.27276 -3.2865,1.90914 -5.21974,1.90914 z m -10.84101,-0.59661 V -50.896611 h 3.12293 v 21.06026 l -0.62458,6.74168 0.62458,6.92064 v 7.5172702 z m 10.30566,-3.4006702 c 1.4871,0 2.79576,-0.43751 3.92596,-1.31254 1.1302,-0.91479 2.0076,-2.16767 2.63218,-3.75863 0.65432,-1.63073 0.98148,-3.48021 0.98148,-5.54845 0,-2.10802 -0.32716,-3.9575 -0.98148,-5.54846 -0.62458,-1.59095 -1.50198,-2.84383 -2.63218,-3.75863 -1.1302,-0.9148 -2.42398,-1.3722 -3.88135,-1.3722 -1.45736,0 -2.75115,0.4574 -3.88134,1.3722 -1.10047,0.9148 -1.96299,2.16768 -2.58758,3.75863 -0.62459,1.59096 -0.93687,3.44044 -0.93687,5.54846 0,2.06824 0.31228,3.91772 0.93687,5.54845 0.62459,1.59096 1.48711,2.84384 2.58758,3.75863 1.10045,0.87503 2.37936,1.31254 3.83673,1.31254 z m 22.21589,3.9972802 c -1.1302,0 -2.2158,-0.19887 -3.25677,-0.59661 -1.04098,-0.43752 -1.99273,-1.03412 -2.85524,-1.7898202 -0.83279,-0.75571 -1.56147,-1.65062 -2.18605,-2.68475 l 2.00759,-2.74439 c 0.83279,1.35231 1.76966,2.36654 2.81064,3.04271 1.07071,0.63638 2.26039,0.95456 3.56905,0.95456 1.39788,0 2.48347,-0.35796 3.25676,-1.07389 0.80305,-0.71593 1.20456,-1.71028 1.20456,-2.98305 0,-1.19321 -0.28255,-2.12789 -0.84765,-2.80404 -0.5651,-0.67617 -1.29378,-1.21312 -2.18604,-1.61085 -0.86254,-0.39773 -1.78454,-0.77558 -2.76602,-1.13355 -0.9815,-0.39774 -1.91838,-0.87503 -2.81063,-1.43186 -0.89227,-0.59661 -1.62095,-1.41198 -2.18605,-2.4461 -0.53536,-1.03411 -0.80305,-2.38643 -0.80305,-4.05693 0,-1.59096 0.28255,-2.96315 0.84765,-4.1166 0.59485,-1.19322 1.42763,-2.10802 2.49835,-2.7444 1.10045,-0.67615 2.39425,-1.01423 3.88135,-1.01423 1.57633,0 3.00396,0.37785 4.28286,1.13355 1.27892,0.75571 2.30502,1.86938 3.07831,3.34101 l -2.00759,2.68474 c -0.62459,-1.0739 -1.41275,-1.88926 -2.3645,-2.44609 -0.922,-0.59661 -1.96298,-0.89492 -3.12292,-0.89492 -1.3384,0 -2.3645,0.35796 -3.07831,1.0739 -0.68407,0.67614 -1.0261,1.57106 -1.0261,2.68473 0,1.0739 0.28255,1.92904 0.84765,2.56542 0.5651,0.59661 1.2789,1.09377 2.14143,1.49152 0.89227,0.35797 1.82913,0.73582 2.81063,1.13356 0.98149,0.35796 1.91837,0.85514 2.81063,1.49151 0.89227,0.59661 1.60607,1.43186 2.14143,2.50576 0.5651,1.03412 0.84765,2.44609 0.84765,4.23592 0,2.50575 -0.68406,4.51433 -2.0522,6.02574 -1.33839,1.4716302 -3.16754,2.2074502 -5.48742,2.2074502 z"
     fill="#000000"
     id="path5"
     style="stroke-width:1.71971"
     sodipodi:nodetypes="ccccccsssscccccsccscccccccsccccsscscccccscssccccscscccccscscccccscssscscssscsccsccccssssccsccsccsccsccccccccsccsccsccsccccccccsccsccsccccssccccccccsccccsscsscccsssccscssscssscscssccsccsscscsssccsccsscscsssscccccsccsscsccccccccsccscsscssccsscccccscssccccsccsscccscscccccscs"
     inkscape:transform-center-x="82.842643"
     inkscape:transform-center-y="-101.79077" />
  <use
     id="use5"
     inkscape:spray-origin="#path1"
     xlink:href="#path1"
     transform="translate(-68.579075,188.37643)" />
  <path
     style="fill:#000000;stroke-width:1.00157"
     d="m 423.83334,182.62738 50.5384,76.95619"
     id="path6" />
  <use
     id="use6"
     inkscape:spray-origin="#path5"
     xlink:href="#path5"
     transform="translate(-394.39549,275.56278)" />
  <use
     id="use7"
     inkscape:spray-origin="#path5"
     xlink:href="#path5"
     transform="translate(-359.9375,426.02936)" />
  <use
     id="use8"
     inkscape:spray-origin="#path5"
     xlink:href="#path5"
     transform="translate(-319.7365,432.92096)" />
  <use
     id="use9"
     inkscape:spray-origin="#path5"
     xlink:href="#path5"
     transform="translate(-106.09693,485.75655)" />
  <use
     id="use10"
     inkscape:spray-origin="#path5"
     xlink:href="#path5"
     transform="translate(12.208852,577.64454)" />
  <path
     style="fill:#000000;stroke-width:1.00157"
     d="m 730.5095,558.21952 -65.47019,-9.18879"
     id="path10" />
  <use
     id="use11"
     inkscape:spray-origin="#path5"
     xlink:href="#use9"
     transform="translate(245.80036,-48.24119)" />
  <text
     xml:space="preserve"
     style="text-align:start;writing-mode:lr-tb;direction:ltr;text-anchor:start;fill:#000000;stroke-width:1.00157"
     x="94.315605"
     y="16.320837"
     id="text11"><tspan
       sodipodi:role="line"
       id="tspan11"
       x="94.315605"
       y="16.320837" /></text>
  <text
     xml:space="preserve"
     id="text12"
     style="font-style:normal;font-variant:normal;font-weight:normal;font-stretch:normal;font-size:37.3333px;font-family:'Bookman Old Style';-inkscape-font-specification:'Bookman Old Style, Normal';font-variant-ligatures:normal;font-variant-caps:normal;font-variant-numeric:normal;font-variant-east-asian:normal;text-align:start;letter-spacing:0.23px;writing-mode:lr-tb;direction:ltr;white-space:pre;shape-inside:url(#rect12);display:inline;fill:#000000;stroke-width:1.00157"
     transform="translate(5.9633827,2.510898)"><tspan
       x="37.349609"
       y="64.772496"
       id="tspan2"><tspan
         dx="0 22.403627 29.85935 27.617168 24.645809 23.898418 12.687496 27.617153 27.617168 26.887997"
         id="tspan1">JOBSFINBER</tspan></tspan></text>
  <text
     xml:space="preserve"
     style="text-align:start;writing-mode:lr-tb;direction:ltr;text-anchor:start;fill:#000000;stroke-width:1.00157"
     x="248.11021"
     y="-33.16711"
     id="text13"><tspan
       sodipodi:role="line"
       id="tspan13"
       x="248.11021"
       y="-33.16711">GGFF</tspan></text>
  <text
     xml:space="preserve"
     style="font-style:normal;font-variant:normal;font-weight:600;font-stretch:normal;font-size:22.9043px;font-family:'Bookman Old Style';-inkscape-font-specification:'Bookman Old Style, Semi-Bold';font-variant-ligatures:normal;font-variant-caps:normal;font-variant-numeric:normal;font-variant-east-asian:normal;text-align:start;letter-spacing:0.141106px;writing-mode:lr-tb;direction:ltr;text-anchor:start;fill:#000000;stroke-width:0.614467"
     x="48.558128"
     y="20.894911"
     id="text14"
     transform="scale(0.69603935,1.4367004)"><tspan
       sodipodi:role="line"
       id="tspan14"
       x="48.558128"
       y="20.894911"
       style="font-style:normal;font-variant:normal;font-weight:600;font-stretch:normal;font-size:22.9043px;font-family:'Bookman Old Style';-inkscape-font-specification:'Bookman Old Style, Semi-Bold';font-variant-ligatures:normal;font-variant-caps:normal;font-variant-numeric:normal;font-variant-east-asian:normal;stroke-width:0.614467">CareerTrack</tspan></text>
</svg>
